<svg width="24" height="28" viewBox="0 0 24 28" fill="none" xmlns="http://www.w3.org/2000/svg">
<path d="M19 12H5C3.6739 12 2.4021 12.5268 1.4645 13.4645C0.5268 14.4021 0 15.6739 0 17V23C0 24.3261 0.5268 25.5979 1.4645 26.5355C2.4021 27.4732 3.6739 28 5 28H19C20.3261 28 21.5979 27.4732 22.5355 26.5355C23.4732 25.5979 24 24.3261 24 23V17C24 15.6739 23.4732 14.4021 22.5355 13.4645C21.5979 12.5268 20.3261 12 19 12ZM12 24C11.2089 24 10.4355 23.7654 9.7777 23.3259C9.1199 22.8864 8.6072 22.2616 8.3045 21.5307C8.0017 20.7998 7.9225 19.9956 8.0769 19.2196C8.2312 18.4437 8.6122 17.731 9.1716 17.1716C9.731 16.6122 10.4437 16.2312 11.2196 16.0769C11.9956 15.9225 12.7998 16.0017 13.5307 16.3045C14.2616 16.6072 14.8864 17.1199 15.3259 17.7777C15.7654 18.4355 16 19.2089 16 20C16 21.0609 15.5786 22.0783 14.8284 22.8284C14.0783 23.5786 13.0609 24 12 24Z" fill="#00A86B"/>
<path d="M12 22C13.1046 22 14 21.1046 14 20C14 18.8954 13.1046 18 12 18C10.8954 18 10 18.8954 10 20C10 21.1046 10.8954 22 12 22Z" fill="#00A86B"/>
<path d="M12 0C11.7348 0 11.4804 0.1054 11.2929 0.2929C11.1054 0.4804 11 0.7348 11 1V6.59L8.46001 4.05C8.26871 3.8862 8.02261 3.8006 7.77091 3.8103C7.51931 3.82 7.28052 3.9243 7.10242 4.1024C6.92432 4.2805 6.82001 4.5193 6.81031 4.7709C6.80061 5.0226 6.88621 5.2687 7.05001 5.46L11.29 9.71C11.3821 9.8 11.4908 9.8713 11.61 9.92C11.7334 9.9723 11.866 9.9992 12 9.9992C12.134 9.9992 12.2666 9.9723 12.39 9.92C12.5092 9.8713 12.6178 9.8 12.71 9.71L17 5.46C17.1638 5.2687 17.2494 5.0226 17.2397 4.7709C17.23 4.5193 17.1257 4.2805 16.9476 4.1024C16.7695 3.9243 16.5307 3.82 16.279 3.8103C16.0274 3.8006 15.7813 3.8862 15.59 4.05L13 6.59V1C13 0.7348 12.8946 0.4804 12.7071 0.2929C12.5196 0.1054 12.2652 0 12 0Z" fill="#00A86B"/>
</svg>
